<svg width="78" height="16" viewBox="0 0 78 16" fill="none" xmlns="http://www.w3.org/2000/svg">
<path d="M2.11364 6.88636V12H0.0568182V3.27273H2.02273V4.75568H2.125C2.32576 4.26705 2.64583 3.87879 3.08523 3.59091C3.52841 3.30303 4.07576 3.15909 4.72727 3.15909C5.32955 3.15909 5.85417 3.28788 6.30114 3.54545C6.75189 3.80303 7.10038 4.17614 7.34659 4.66477C7.59659 5.15341 7.7197 5.74621 7.71591 6.44318V12H5.65909V6.76136C5.65909 6.17803 5.50758 5.72159 5.20455 5.39205C4.9053 5.0625 4.49053 4.89773 3.96023 4.89773C3.60038 4.89773 3.2803 4.97727 3 5.13636C2.72348 5.29167 2.50568 5.51705 2.34659 5.8125C2.19129 6.10795 2.11364 6.46591 2.11364 6.88636ZM12.3182 12.1761C11.7652 12.1761 11.267 12.0777 10.8239 11.8807C10.3845 11.6799 10.036 11.3845 9.77841 10.9943C9.52462 10.6042 9.39773 10.1231 9.39773 9.55114C9.39773 9.05871 9.48864 8.65152 9.67045 8.32955C9.85227 8.00758 10.1004 7.75 10.4148 7.55682C10.7292 7.36364 11.0833 7.2178 11.4773 7.11932C11.875 7.01705 12.286 6.94318 12.7102 6.89773C13.2216 6.8447 13.6364 6.79735 13.9545 6.75568C14.2727 6.71023 14.5038 6.64205 14.6477 6.55114C14.7955 6.45644 14.8693 6.31061 14.8693 6.11364V6.07955C14.8693 5.65152 14.7424 5.32008 14.4886 5.08523C14.2348 4.85038 13.8693 4.73295 13.392 4.73295C12.8883 4.73295 12.4886 4.8428 12.1932 5.0625C11.9015 5.2822 11.7045 5.54167 11.6023 5.84091L9.68182 5.56818C9.83333 5.03788 10.0833 4.5947 10.4318 4.23864C10.7803 3.87879 11.2064 3.60985 11.7102 3.43182C12.214 3.25 12.7708 3.15909 13.3807 3.15909C13.8011 3.15909 14.2197 3.20833 14.6364 3.30682C15.053 3.4053 15.4337 3.56818 15.7784 3.79545C16.1231 4.01894 16.3996 4.32386 16.608 4.71023C16.8201 5.09659 16.9261 5.57955 16.9261 6.15909V12H14.9489V10.8011H14.8807C14.7557 11.0436 14.5795 11.2708 14.3523 11.483C14.1288 11.6913 13.8466 11.8598 13.5057 11.9886C13.1686 12.1136 12.7727 12.1761 12.3182 12.1761ZM12.8523 10.6648C13.2652 10.6648 13.6231 10.5833 13.9261 10.4205C14.2292 10.2538 14.4621 10.0341 14.625 9.76136C14.7917 9.48864 14.875 9.19129 14.875 8.86932V7.84091C14.8106 7.89394 14.7008 7.94318 14.5455 7.98864C14.3939 8.03409 14.2235 8.07386 14.0341 8.10795C13.8447 8.14205 13.6572 8.17235 13.4716 8.19886C13.286 8.22538 13.125 8.24811 12.9886 8.26705C12.6818 8.30871 12.4072 8.37689 12.1648 8.47159C11.9223 8.56629 11.7311 8.69886 11.5909 8.86932C11.4508 9.03598 11.3807 9.25189 11.3807 9.51705C11.3807 9.89583 11.5189 10.1818 11.7955 10.375C12.072 10.5682 12.4242 10.6648 12.8523 10.6648ZM21.0511 6.88636V12H18.9943V3.27273H20.9602V4.75568H21.0625C21.2633 4.26705 21.5833 3.87879 22.0227 3.59091C22.4659 3.30303 23.0133 3.15909 23.6648 3.15909C24.267 3.15909 24.7917 3.28788 25.2386 3.54545C25.6894 3.80303 26.0379 4.17614 26.2841 4.66477C26.5341 5.15341 26.6572 5.74621 26.6534 6.44318V12H24.5966V6.76136C24.5966 6.17803 24.4451 5.72159 24.142 5.39205C23.8428 5.0625 23.428 4.89773 22.8977 4.89773C22.5379 4.89773 22.2178 4.97727 21.9375 5.13636C21.661 5.29167 21.4432 5.51705 21.2841 5.8125C21.1288 6.10795 21.0511 6.46591 21.0511 6.88636ZM32.5511 12.1705C31.6989 12.1705 30.9602 11.983 30.3352 11.608C29.7102 11.233 29.2254 10.7083 28.8807 10.0341C28.5398 9.35985 28.3693 8.57197 28.3693 7.67045C28.3693 6.76894 28.5398 5.97917 28.8807 5.30114C29.2254 4.62311 29.7102 4.09659 30.3352 3.72159C30.9602 3.34659 31.6989 3.15909 32.5511 3.15909C33.4034 3.15909 34.142 3.34659 34.767 3.72159C35.392 4.09659 35.875 4.62311 36.2159 5.30114C36.5606 5.97917 36.733 6.76894 36.733 7.67045C36.733 8.57197 36.5606 9.35985 36.2159 10.0341C35.875 10.7083 35.392 11.233 34.767 11.608C34.142 11.983 33.4034 12.1705 32.5511 12.1705ZM32.5625 10.5227C33.0246 10.5227 33.411 10.3958 33.7216 10.142C34.0322 9.88447 34.2633 9.53977 34.4148 9.10795C34.5701 8.67614 34.6477 8.19508 34.6477 7.66477C34.6477 7.13068 34.5701 6.64773 34.4148 6.21591C34.2633 5.7803 34.0322 5.43371 33.7216 5.17614C33.411 4.91856 33.0246 4.78977 32.5625 4.78977C32.089 4.78977 31.6951 4.91856 31.3807 5.17614C31.0701 5.43371 30.8371 5.7803 30.6818 6.21591C30.5303 6.64773 30.4545 7.13068 30.4545 7.66477C30.4545 8.19508 30.5303 8.67614 30.6818 9.10795C30.8371 9.53977 31.0701 9.88447 31.3807 10.142C31.6951 10.3958 32.089 10.5227 32.5625 10.5227ZM43.7685 6.30682V8H38.5298V6.30682H43.7685ZM46.0227 12V0.363636H48.0795V4.71591H48.1648C48.2708 4.50379 48.4205 4.27841 48.6136 4.03977C48.8068 3.79735 49.0682 3.59091 49.3977 3.42045C49.7273 3.24621 50.1477 3.15909 50.6591 3.15909C51.3333 3.15909 51.9413 3.33144 52.483 3.67614C53.0284 4.01705 53.4602 4.52273 53.7784 5.19318C54.1004 5.85985 54.2614 6.67803 54.2614 7.64773C54.2614 8.60606 54.1042 9.42045 53.7898 10.0909C53.4754 10.7614 53.0473 11.2727 52.5057 11.625C51.964 11.9773 51.3504 12.1534 50.6648 12.1534C50.1648 12.1534 49.75 12.0701 49.4205 11.9034C49.0909 11.7367 48.8258 11.536 48.625 11.3011C48.428 11.0625 48.2746 10.8371 48.1648 10.625H48.0455V12H46.0227ZM48.0398 7.63636C48.0398 8.20076 48.1193 8.69508 48.2784 9.11932C48.4413 9.54356 48.6742 9.875 48.9773 10.1136C49.2841 10.3485 49.6553 10.4659 50.0909 10.4659C50.5455 10.4659 50.9261 10.3447 51.233 10.1023C51.5398 9.85606 51.7708 9.52083 51.9261 9.09659C52.0852 8.66856 52.1648 8.18182 52.1648 7.63636C52.1648 7.0947 52.0871 6.61364 51.9318 6.19318C51.7765 5.77273 51.5455 5.44318 51.2386 5.20455C50.9318 4.96591 50.5492 4.84659 50.0909 4.84659C49.6515 4.84659 49.2784 4.96212 48.9716 5.19318C48.6648 5.42424 48.4318 5.74811 48.2727 6.16477C48.1174 6.58144 48.0398 7.07197 48.0398 7.63636ZM58.0668 0.363636V12H56.0099V0.363636H58.0668ZM63.9886 12.1705C63.1364 12.1705 62.3977 11.983 61.7727 11.608C61.1477 11.233 60.6629 10.7083 60.3182 10.0341C59.9773 9.35985 59.8068 8.57197 59.8068 7.67045C59.8068 6.76894 59.9773 5.97917 60.3182 5.30114C60.6629 4.62311 61.1477 4.09659 61.7727 3.72159C62.3977 3.34659 63.1364 3.15909 63.9886 3.15909C64.8409 3.15909 65.5795 3.34659 66.2045 3.72159C66.8295 4.09659 67.3125 4.62311 67.6534 5.30114C67.9981 5.97917 68.1705 6.76894 68.1705 7.67045C68.1705 8.57197 67.9981 9.35985 67.6534 10.0341C67.3125 10.7083 66.8295 11.233 66.2045 11.608C65.5795 11.983 64.8409 12.1705 63.9886 12.1705ZM64 10.5227C64.4621 10.5227 64.8485 10.3958 65.1591 10.142C65.4697 9.88447 65.7008 9.53977 65.8523 9.10795C66.0076 8.67614 66.0852 8.19508 66.0852 7.66477C66.0852 7.13068 66.0076 6.64773 65.8523 6.21591C65.7008 5.7803 65.4697 5.43371 65.1591 5.17614C64.8485 4.91856 64.4621 4.78977 64 4.78977C63.5265 4.78977 63.1326 4.91856 62.8182 5.17614C62.5076 5.43371 62.2746 5.7803 62.1193 6.21591C61.9678 6.64773 61.892 7.13068 61.892 7.66477C61.892 8.19508 61.9678 8.67614 62.1193 9.10795C62.2746 9.53977 62.5076 9.88447 62.8182 10.142C63.1326 10.3958 63.5265 10.5227 64 10.5227ZM73.7116 15.4545C72.973 15.4545 72.3385 15.3542 71.8082 15.1534C71.2779 14.9564 70.8518 14.6913 70.5298 14.358C70.2079 14.0246 69.9844 13.6553 69.8594 13.25L71.7116 12.8011C71.795 12.9716 71.9162 13.1402 72.0753 13.3068C72.2344 13.4773 72.4484 13.6174 72.7173 13.7273C72.9901 13.8409 73.3329 13.8977 73.7457 13.8977C74.3291 13.8977 74.812 13.7557 75.1946 13.4716C75.5772 13.1913 75.7685 12.7292 75.7685 12.0852V10.4318H75.6662C75.5601 10.6439 75.4048 10.8617 75.2003 11.0852C74.9995 11.3087 74.7325 11.4962 74.3991 11.6477C74.0696 11.7992 73.6548 11.875 73.1548 11.875C72.4844 11.875 71.8764 11.7178 71.331 11.4034C70.7893 11.0852 70.3575 10.6117 70.0355 9.98295C69.7173 9.35038 69.5582 8.55871 69.5582 7.60795C69.5582 6.64962 69.7173 5.84091 70.0355 5.18182C70.3575 4.51894 70.7912 4.01705 71.3366 3.67614C71.8821 3.33144 72.4901 3.15909 73.1605 3.15909C73.6719 3.15909 74.0923 3.24621 74.4219 3.42045C74.7552 3.59091 75.0204 3.79735 75.2173 4.03977C75.4143 4.27841 75.5639 4.50379 75.6662 4.71591H75.7798V3.27273H77.8082V12.142C77.8082 12.8883 77.6302 13.5057 77.2741 13.9943C76.9181 14.483 76.4313 14.8485 75.8139 15.0909C75.1965 15.3333 74.4957 15.4545 73.7116 15.4545ZM73.7287 10.2614C74.1643 10.2614 74.5355 10.1553 74.8423 9.94318C75.1491 9.73106 75.3821 9.42614 75.5412 9.02841C75.7003 8.63068 75.7798 8.15341 75.7798 7.59659C75.7798 7.04735 75.7003 6.56629 75.5412 6.15341C75.3859 5.74053 75.1548 5.42045 74.848 5.19318C74.545 4.96212 74.1719 4.84659 73.7287 4.84659C73.2704 4.84659 72.8878 4.96591 72.581 5.20455C72.2741 5.44318 72.0431 5.77083 71.8878 6.1875C71.7325 6.60038 71.6548 7.07008 71.6548 7.59659C71.6548 8.13068 71.7325 8.59848 71.8878 9C72.0469 9.39773 72.2798 9.70833 72.5866 9.93182C72.8973 10.1515 73.2779 10.2614 73.7287 10.2614Z" fill="black"/>
</svg>

